<svg width="25" height="24" viewBox="0 0 25 24" fill="none" xmlns="http://www.w3.org/2000/svg">
<path d="M13.5803 1.58791C13.5707 1.53617 13.5641 1.48391 13.5606 1.4314C13.5094 0.694353 14.0648 0.0552236 14.8025 0.00329819C15.5411 -0.0481069 16.1807 0.507464 16.2322 1.24451C16.2838 1.98156 15.7282 2.62069 14.9904 2.67262C14.9438 2.67616 14.8975 2.67678 14.8523 2.67501C14.8224 2.68271 14.8045 2.68635 14.7788 2.70904C14.7028 2.82725 14.9719 2.80519 14.789 3.32184C14.789 3.32184 14.7877 3.37855 14.7674 3.43527C14.753 3.6336 14.6767 4.22133 14.6658 4.53434C14.7046 4.5797 14.7155 4.60177 14.7113 4.71176C14.694 4.86046 14.6598 5.22487 14.6049 5.45838C14.5584 5.65848 14.4766 5.69667 14.4106 5.74569C14.3179 6.16026 14.2935 6.50365 14.0556 7.00719C14.0341 7.38888 14.0072 7.49283 13.9271 7.6792C13.9181 8.24123 13.957 8.32489 13.5774 9.2148C13.4794 9.63104 13.5726 9.91897 13.676 10.3514C13.7819 10.7959 14.0754 10.9816 14.1191 11.4368C14.2219 12.5087 14.1962 13.2384 13.9659 14.0789L14.1669 14.5543C14.4163 14.6685 15.035 14.9809 14.6919 15.4754C15.1751 15.7291 15.905 15.9985 16.5071 16.513C16.7493 16.7144 17.0052 16.9341 17.2348 17.192C17.6718 17.26 17.6252 17.2947 17.9491 17.4935C18.9018 18.077 20.4294 19.2344 21.3149 20.0539C21.4674 20.1429 21.5296 20.207 21.6528 20.2715C21.672 20.3083 21.6772 20.3168 21.673 20.3268C21.6307 20.4338 21.6322 20.4369 21.594 20.5222C21.6418 20.5749 21.7309 20.6242 21.7841 20.6704C21.8339 20.6859 21.8339 20.6621 21.9193 20.6412C22.0305 20.7452 22.1682 20.8289 22.2176 20.824C22.3683 20.7858 22.3426 20.817 22.47 20.6746C22.5158 20.6275 22.5926 20.6752 22.5926 20.6752C22.6404 20.6191 22.7432 20.5074 22.8803 20.4266C22.9897 20.3622 23.1984 20.355 23.1984 20.355C23.2683 20.3557 23.2552 20.4273 23.2491 20.4506C23.1702 20.4912 23.0029 20.536 22.9089 20.6052C22.7043 20.8165 22.5441 21.1017 22.5441 21.1017C22.956 21.0455 23.209 21.1475 23.5523 21.1082C23.7395 21.0974 23.8776 21.1095 24.0742 20.9673C24.0742 20.9673 24.2631 20.833 24.4324 20.7617C24.5968 20.6901 24.7528 20.7283 24.8975 20.8333C24.9997 20.9485 25.0613 20.9491 24.9058 21.1118C24.8497 21.1749 24.7683 21.2455 24.665 21.3477C24.4832 21.5271 24.2385 21.7662 23.9852 21.9641C23.7286 22.1642 23.4375 22.3439 23.2557 22.4263C22.7972 22.7555 22.9054 22.6694 22.5449 22.9956C22.4993 23.0363 22.3786 23.1091 22.3201 23.1479C22.1779 23.2411 22.1335 23.1634 22.0408 22.9926C22.0408 22.9926 21.9984 22.9288 21.9284 22.7925C21.8519 22.6438 21.7945 22.4738 21.8178 22.4766C21.7323 22.4658 21.3477 22.0154 21.3468 21.9188C21.2655 21.9002 20.9186 21.5647 20.9062 21.5006L20.5989 21.2545C20.2473 21.3275 20.1667 21.1094 19.2381 20.4512C19.1322 20.4493 18.9685 20.3922 18.734 20.2184C18.315 19.8831 17.3098 19.1246 17.1393 19.038C16.9563 18.9448 16.7377 18.8571 16.6035 18.7465C16.4026 18.7096 16.2927 18.6885 16.1921 18.6605C16.0894 18.6324 15.996 18.5961 15.736 18.5614C15.3127 18.5088 14.8738 18.3338 14.4559 18.1248C14.258 18.0312 14.0857 17.9834 13.9154 17.9103C13.5333 17.7491 13.2057 17.6039 12.9519 17.5453C12.855 17.5358 12.3946 17.3978 12.1531 17.257C12.0694 17.2139 12.0209 17.1727 11.9659 17.1601C11.8391 17.131 11.7578 17.181 11.7005 17.2003C11.3908 17.3615 11.1008 17.5007 10.8329 17.6447C10.5835 17.7779 10.3539 17.9163 10.1106 18.0563C9.89108 18.1829 9.63754 18.3023 9.37691 18.4266C9.37691 18.4266 8.63366 18.7987 8.22772 18.9434C7.87552 19.2306 7.15562 19.7275 6.71623 19.9736C6.49862 20.0769 6.07591 20.3444 5.88091 20.4043C5.76965 20.4937 5.37329 20.7763 5.06297 21.0093C4.82318 21.1884 4.64203 21.3395 4.64203 21.3395C4.50275 21.4643 4.51223 21.5235 4.24744 21.4111C4.17389 21.4715 4.11712 21.509 4.06983 21.5437C3.87858 21.6823 3.86233 21.6489 3.79243 21.6453C3.65909 21.7606 3.64232 21.7009 3.52576 21.8336C3.44919 21.952 3.52753 21.9237 3.36607 21.9812C3.332 21.9943 3.31586 22.0354 3.28961 22.0582C3.15981 22.1649 3.15929 22.4667 2.84835 22.4882C2.66835 22.6165 2.71439 22.7715 2.57689 22.7647C2.58532 22.8978 2.33355 23.0921 2.28813 23.0915C1.89167 23.2281 1.86416 22.9369 1.38822 23.1542C1.32666 23.1824 1.23634 23.2602 1.11738 23.2826C0.908106 23.3221 0.655185 23.2808 0.500911 23.1614C0.258094 22.9744 0.0345485 22.6136 0.0345485 22.6136C-0.0426404 22.4314 0.00225623 22.3162 0.243198 22.144C0.343617 22.0802 0.362159 22.0325 0.530808 22.0209C0.614559 21.9893 0.591746 22.0377 0.741332 21.9841C0.828 21.953 0.828 21.9751 1.00259 21.9602C1.04259 21.9333 1.09884 21.9237 1.17415 21.8993C1.31228 21.8538 1.44687 21.8031 1.44687 21.8031C1.44687 21.8031 1.48207 21.7678 1.61489 21.7804C1.72729 21.7344 1.84271 21.6662 1.90187 21.6453C1.88687 21.4674 1.90604 21.4758 1.98854 21.4042C2.09136 21.3156 2.1099 21.3301 2.18646 21.3849C2.21875 21.3663 2.23428 21.3599 2.23073 21.3329C2.21813 21.2403 2.13865 21.1967 2.16261 20.9925C2.12729 20.9107 2.07531 20.8098 2.08667 20.7488C2.10344 20.683 2.11959 20.6513 2.15959 20.6304C2.20209 20.6078 2.21584 20.6383 2.23855 20.6638C2.27917 20.711 2.31209 20.8509 2.31209 20.8509C2.32647 21.0086 2.37542 21.2129 2.53147 21.0976C2.62355 21.0044 2.64147 20.756 2.82918 20.8091L2.96314 20.9255C3.07679 20.8187 3.08221 20.8187 3.15033 20.7757C3.15033 20.7757 3.04387 20.6683 3.13721 20.5846C3.20117 20.5278 3.27825 20.4871 3.41524 20.3355C3.79128 19.9204 3.98441 19.7369 4.39109 19.4024C5.20246 18.7358 6.1256 18.2682 6.71217 18.0358C6.90342 17.7932 7.08947 17.632 7.51396 17.5913C8.01855 16.7401 8.98482 15.98 9.20669 15.8588C9.38722 15.5319 9.46555 15.5667 9.7017 15.501C9.88879 15.3512 9.93129 15.3512 10.015 15.1947C10.0964 14.8717 9.82733 14.0085 10.5142 13.9649C10.6602 13.7589 10.6237 13.8084 10.7863 13.6137C10.6763 13.3425 10.6309 13.1157 10.601 12.9202C10.5956 12.8976 10.3284 12.7094 10.4042 12.4638C10.2907 12.3289 10.0784 12.0139 10.012 11.8663C9.98161 11.867 9.9564 11.8555 9.92296 11.8509C9.88827 11.8454 9.84514 11.8474 9.79681 11.8432C9.68983 12.119 9.57326 12.1395 9.38305 12.2004C9.04346 12.9234 8.92388 13.2294 7.96303 13.8271C7.58156 14.2537 7.45958 14.7291 7.46135 14.722C7.39562 14.8629 7.41885 15.0601 7.45354 15.1658C7.40333 15.3223 7.41645 15.3378 7.41645 15.3378C7.43739 15.3969 7.49187 15.4752 7.55875 15.4918C7.67417 15.5223 7.78959 15.5174 7.78292 15.6458C7.7674 15.8065 7.55635 15.7802 7.45645 15.7623C7.07197 15.7013 7.19343 15.4511 6.94759 15.5346C6.75925 15.6577 6.68873 16.0209 6.38133 15.9737C6.3407 15.9469 6.35321 15.8675 6.38071 15.8102C6.42383 15.7206 6.50029 15.6465 6.45487 15.6129C6.25443 15.677 6.05432 15.7421 5.85455 15.8083C5.66621 15.8596 5.45986 15.7658 5.64528 15.6421C5.73142 15.6087 5.85455 15.5668 6.00643 15.4696C6.00643 15.4696 6.08466 15.3632 5.93466 15.4164C5.7708 15.4749 5.52923 15.5113 5.3559 15.4923C5.3559 15.4923 4.99651 15.4451 4.95047 15.4169C4.9038 15.3887 4.86141 15.2778 4.97381 15.2784C5.1161 15.2797 5.47246 15.2377 5.74872 15.1643C5.88205 15.1123 6.1356 14.9625 6.27789 14.8919C6.27789 14.8919 6.43217 14.6674 6.51706 14.6232C6.65873 14.4602 6.77832 14.3639 6.90384 14.1972C7.02645 13.9445 7.15322 13.5445 7.55916 12.925C7.74688 12.6395 7.98011 12.3069 8.27366 12.0095C8.27366 12.0095 8.3496 11.5335 8.73169 11.1948C8.81606 10.9965 8.94398 10.763 9.07013 10.5468C9.11919 10.4637 9.16576 10.3915 9.21242 10.3126C9.33086 10.1269 9.45524 9.78109 9.91681 9.72667C9.91681 9.72667 10.1141 9.58098 10.19 9.47745C10.3085 9.37651 10.2815 9.21948 10.3778 9.10887C10.2307 8.96558 9.85462 8.69617 9.81806 8.32166C9.77921 7.92447 9.92087 7.59773 10.1613 7.35589C10.428 7.0895 10.709 6.95631 11.0504 6.9766C11.4766 7.03987 11.5574 7.18087 11.6931 7.32062C11.8234 7.45319 11.8718 7.36786 11.9268 7.52312C12.2845 7.61812 12.2647 7.57629 12.2616 7.83914C12.3166 7.91313 12.4087 7.98191 12.4075 8.1354C12.5277 7.88628 12.5515 7.84039 12.8727 7.5662C12.9486 7.34341 13.0002 7.12426 13.0669 6.90147C13.1295 6.69543 13.2073 6.48336 13.2676 6.32384C13.2036 5.87347 13.335 5.79886 13.5103 5.40406C13.4793 5.34974 13.4859 5.33424 13.4991 5.24516C13.5672 4.98418 13.6737 4.63891 13.737 4.41373C13.737 4.41373 13.7579 4.32414 13.8506 4.31758C13.9308 4.03267 14.0511 3.50228 14.0713 3.39416C14.1538 3.09614 14.1005 3.00051 14.0372 2.83266C14.0169 2.77772 14.0264 2.69946 13.9913 2.63849C13.8914 2.46471 13.7839 2.2389 13.7109 2.07761C13.6636 1.9749 13.5889 1.5878 13.5889 1.5878C13.5247 1.3902 13.5803 1.58791 13.5803 1.58791Z" fill="#111111"/>
</svg>
