<svg width="76" height="27" viewBox="0 0 76 27" xmlns="http://www.w3.org/2000/svg">
  <path fill-rule="evenodd" clip-rule="evenodd" d="M9.66012 1.19728C4.75277 6.93022 0.0475643 14.0396 0.000383056 19.3536C-0.0179928 21.353 0.623672 23.0985 2.16277 24.4206C4.37781 26.3246 6.81832 26.996 9.24691 27C12.7959 27.0049 16.3201 25.5806 19.0795 24.4823C23.7266 22.6336 75.096 0.442371 75.096 0.442371C75.5916 0.195346 75.4988 -0.112445 74.8785 0.0412047C74.6282 0.103455 18.9548 15.1122 18.9548 15.1122C17.9003 15.4089 16.8106 15.5641 15.7147 15.5736C11.4361 15.5988 7.62884 13.2363 7.65963 8.25774C7.67155 6.3097 8.271 3.9605 9.66012 1.19728Z"/>
</svg>

